<svg xmlns="http://www.w3.org/2000/svg" width="254" height="50" viewBox="0 0 254 50">
    <g fill="none" fill-rule="nonzero">
        <g fill="#F2F2F2">
            <path d="M85.645 39c.429.357.858.857 1.073 1.429.286.571.357 1.142.357 1.785 0 .572-.143 1.143-.357 1.643-.215.5-.501 1-.93 1.357a4.583 4.583 0 0 1-1.36.929 4.33 4.33 0 0 1-1.717.357H57.883v-2.143h24.828c.572 0 1.145-.214 1.574-.643.43-.428.644-.928.644-1.571 0-.572-.215-1.143-.644-1.572-.43-.428-.93-.642-1.574-.642H57.883v-2.143h24.828c.572 0 1.145-.215 1.574-.643.43-.429.644-.929.644-1.572 0-.285-.072-.571-.143-.857a2.565 2.565 0 0 0-.5-.714 2.57 2.57 0 0 0-.716-.5c-.287-.143-.573-.143-.859-.143H57.883v-2.143h24.828c.572 0 1.145.143 1.717.357.501.215 1.002.572 1.36.929.357.357.715.857.93 1.357.214.5.357 1.072.357 1.714 0 .643-.143 1.286-.357 1.786-.215.5-.573 1.214-1.073 1.643zM114.479 46.571H97.235c-.858 0-1.574-.142-2.29-.5a4.84 4.84 0 0 1-1.86-1.285c-.572-.572-1.001-1.143-1.287-1.857-.286-.715-.501-1.5-.501-2.286v-3.286c0-.857.143-1.571.5-2.286a5.708 5.708 0 0 1 1.289-1.928c.572-.572 1.144-1 1.86-1.286.715-.286 1.502-.5 2.29-.5h17.243c.858 0 1.574.143 2.29.5a4.84 4.84 0 0 1 1.86 1.286c.572.571 1.001 1.143 1.288 1.928.286.715.5 1.5.5 2.286v3.286c0 .857-.143 1.571-.5 2.286a4.832 4.832 0 0 1-1.288 1.857c-.573.571-1.145 1-1.86 1.285-.716.358-1.503.5-2.29.5zm-17.315-13c-.5 0-1.002.072-1.431.286-.43.214-.859.5-1.216.786-.358.357-.644.714-.787 1.214-.215.429-.287.929-.287 1.5v3.286c0 .5.072 1 .287 1.428.214.429.5.858.787 1.215.357.357.715.643 1.216.785.43.215.93.286 1.43.286h17.316c.5 0 1.002-.071 1.43-.286.43-.214.86-.5 1.217-.785.358-.286.644-.715.787-1.215.215-.428.286-.928.286-1.428v-3.286c0-.5-.071-1-.286-1.5a7.076 7.076 0 0 0-.787-1.214c-.358-.357-.715-.643-1.216-.786-.43-.214-.93-.286-1.431-.286H97.164zM134.799 33.571h-10.303V31.43h10.303v2.142zm5.366 13h-2.146V37.93c0-.929.143-1.786.5-2.572.358-.786.787-1.5 1.431-2.071a7.147 7.147 0 0 1 2.075-1.429c.787-.357 1.646-.5 2.576-.5h9.087V33.5h-9.158c-.573 0-1.145.143-1.718.357-.5.214-1.001.572-1.43.929-.43.428-.716.857-.93 1.428a4.31 4.31 0 0 0-.358 1.715v8.642h.071z"/>
        </g>
        <g fill="#F2F2F2">
            <path d="M153.831 23.429h-21.536c-1.074 0-2.004-.215-2.934-.572-.93-.428-1.717-.928-2.433-1.643-.715-.714-1.216-1.5-1.645-2.428-.43-.929-.573-1.929-.573-2.929a8.29 8.29 0 0 1 .573-3c.43-.928.93-1.714 1.645-2.428.716-.715 1.503-1.215 2.433-1.643.93-.429 1.932-.572 2.934-.572h21.536v2.143h-21.536c-.787 0-1.431.143-2.147.429-.644.285-1.216.714-1.717 1.143-.5.5-.859 1.071-1.145 1.714-.286.643-.43 1.357-.43 2.143 0 .785.144 1.428.43 2.143.286.642.644 1.214 1.145 1.714.5.5 1.073.857 1.717 1.143.644.285 1.36.428 2.147.428h21.536v2.215zM91.44 10.429V8.286h29.12v2.143H91.44zm0 0V8.286h29.12v2.143H91.44zm0 6.5v-2.143h29.12v2.143H91.44zm0 0v-2.143h29.12v2.143H91.44zm0 6.5v-2.143h29.12v2.143H91.44zm0 0v-2.143h29.12v2.143H91.44zM224.379 10.429V8.286h29.12v2.143h-29.12zm0 0V8.286h29.12v2.143h-29.12zm0 6.5v-2.143h29.12v2.143h-29.12zm0 0v-2.143h29.12v2.143h-29.12zm0 6.5v-2.143h29.12v2.143h-29.12zm0 0v-2.143h29.12v2.143h-29.12zM220.515 13.857c0 .786-.143 1.5-.43 2.143a6.084 6.084 0 0 1-1.216 1.786c-.5.5-1.073.928-1.788 1.214-.644.286-1.431.429-2.147.429h-1.43l4.149 4h-3.148l-4.15-4h-14.31c-.43 0-.787.071-1.145.214-.357.143-.644.357-.93.643-.286.285-.5.571-.644.928a2.957 2.957 0 0 0-.214 1.143v1.072h-2.147v-1.072c0-.714.143-1.357.43-2 .286-.643.643-1.143 1.073-1.643.429-.428 1.001-.857 1.645-1.071a4.808 4.808 0 0 1 2.004-.429h18.889c.429 0 .93-.071 1.288-.285.429-.215.787-.429 1.073-.715.286-.285.572-.643.715-1.071.215-.429.286-.857.286-1.286 0-.5-.071-.928-.286-1.357-.214-.429-.429-.786-.715-1.071-.286-.286-.644-.572-1.073-.715a2.81 2.81 0 0 0-1.288-.285h-23.97V8.286h23.97c.787 0 1.502.143 2.146.428a6.095 6.095 0 0 1 1.789 1.215c.5.5.93 1.071 1.216 1.785.215.643.358 1.357.358 2.143zM181.091 23.429h-17.243c-.859 0-1.574-.143-2.29-.5a4.84 4.84 0 0 1-1.86-1.286c-.572-.572-1.002-1.143-1.288-1.857-.286-.715-.5-1.5-.5-2.286V8.286h2.146V17.5c0 .5.071 1 .286 1.429.215.428.5.857.787 1.214.358.357.716.643 1.216.786.43.214.93.285 1.431.285h17.244c.5 0 1.001-.071 1.43-.285.43-.215.86-.5 1.217-.786.358-.286.644-.714.787-1.214.215-.429.286-.929.286-1.429V8.286h2.147V17.5c0 .857-.143 1.571-.501 2.286a4.832 4.832 0 0 1-1.288 1.857c-.572.571-1.145 1-1.86 1.286-.573.357-1.288.5-2.147.5zM87.505 8.214L74.84 15.857l12.735 7.5h-4.15l-10.66-6.286-10.375 6.286h-4.15l12.521-7.5L58.17 8.214h4.15l10.517 6.357 10.59-6.357z"/>
        </g>
        <path fill="#3780BE" d="M21.107 40.071c-3.005-2.428-5.795-5.285-7.87-8.428-.287-.5-.644-1-.93-1.5h4.865c1.216 1.643 2.504 3.143 4.007 4.571v5.357h-.072z"/>
        <path fill="#CB4440" d="M37.85 21.714c.429-1.143.715-2.214 1.001-3.285l.072-.215-9.445-4.714V9l14.024 7-.286 1.5a46.896 46.896 0 0 1-1.073 4.286H37.85v-.072z"/>
        <path fill="#3780BE" d="M1.932 21.714a46.535 46.535 0 0 1-1.288-7.571v-.357l-.072-1.357L21.18 2.143v4.5L4.865 14.786V15c.287 2.286.716 4.5 1.36 6.643H1.932v.071z"/>
        <path fill="#4DAA69" d="M24.327 49.5c-.43-.214-.859-.429-1.217-.643-.5-.286-.93-.571-1.574-.928A44.659 44.659 0 0 1 8.014 35.07c-1.145-1.714-2.219-3.5-3.149-5.428-.286-.5-.5-1-.715-1.572-.573-1.357-1.145-2.785-1.574-4.214h6.582l-.143-.428c-.214-.5-.358-1-.5-1.572a46.896 46.896 0 0 1-1.074-4.286l-.286-1.5L23.325 8V1.071L25.472 0l24.613 12.286-.072 1.357c0 .143 0 .357-.072.5-.214 2.643-.644 5.214-1.359 7.786-.143.571-.286 1.071-.43 1.571-.5 1.5-1.001 3-1.645 4.429h-6.869l-.071.142c-.286.5-.573 1-.859 1.572-.43.714-.858 1.357-1.216 1.928-2.29 3.358-5.08 6.358-8.371 8.786-.501.357-1.002.786-1.575 1.143l-.143.071v7.286a8.548 8.548 0 0 1-1.144.572l-.93.5-1.002-.429zM8.729 28.429c.286.5.572 1.071.859 1.571 2.862 5.143 6.797 9.5 11.662 12.929.501.357 1.002.714 1.574 1.071l.501.286v-7.643c.572.5 1.216.928 1.86 1.357l.215.143.215-.143c.787-.571 1.574-1.143 2.36-1.857.502-.429 1.002-.857 1.575-1.429a33.23 33.23 0 0 0 4.15-4.785l.143-.215c.143-.143.214-.285.358-.428.214-.286.357-.572.572-.857v-.072a26.977 26.977 0 0 0 2.361-4.5h6.726l.071-.214c.215-.572.358-1.072.501-1.572a41.708 41.708 0 0 0 1.503-7.214v-.214L27.403 5.429v6.928l-1.86-.928-13.737 6.857.071.214a39.798 39.798 0 0 0 1.073 3.571c.215.5.43 1.072.644 1.572.644 1.5 1.36 2.857 2.147 4.214H8.586l.143.572z"/>
        <path fill="#CB4440" d="M29.478 42.786c4.723-3.357 8.586-7.643 11.377-12.643h4.579a43.563 43.563 0 0 1-2.934 5c-3.363 5-7.87 9.286-13.022 12.571v-4.928z"/>
        <g>
            <path fill="#4DAA69" d="M25.307 13.643a1.18 1.18 0 0 1 1.195 1.195 1.18 1.18 0 0 1-1.195 1.195 1.18 1.18 0 0 1-1.195-1.195c0-.598.523-1.195 1.195-1.195z"/>
            <path fill="#3780BE" d="M22.61 17.31c.645 0 1.146.5 1.146 1.143s-.501 1.143-1.145 1.143a1.13 1.13 0 0 1-1.145-1.143c-.071-.572.5-1.143 1.145-1.143z"/>
            <path fill="#CB4440" d="M28.047 17.214c.644 0 1.145.5 1.145 1.143s-.5 1.143-1.145 1.143a1.13 1.13 0 0 1-1.144-1.143c0-.571.5-1.143 1.144-1.143z"/>
            <g fill="#EFC747">
                <path d="M30.122 22.143v4.786l-1.645.928v-8.143c.5-.214.93-.714.93-1.285 0-.786-.644-1.358-1.36-1.358-.787 0-1.36.643-1.36 1.358 0 .571.359 1.071.931 1.285v8.643l-1.86 1.072V16.143c.5-.214.93-.714.93-1.286 0-.786-.644-1.357-1.36-1.357-.787 0-1.359.643-1.359 1.357 0 .572.358 1.072.93 1.286V29.5l-1.86-1.071v-8.643c.5-.215.93-.715.93-1.286 0-.786-.644-1.357-1.36-1.357-.786 0-1.359.643-1.359 1.357 0 .571.358 1.071.93 1.286v8.071l-1.645-.928v-4.786l-.93.5v6.643l5.723 3.285 5.724-3.285v-6.643l-.93-.5zm-3.148-3.714a1.1 1.1 0 0 1 1.073-1.072 1.1 1.1 0 0 1 1.074 1.072c0 .428-.215.785-.573.928v-.928c0-.286-.214-.429-.43-.429-.285 0-.428.214-.428.429v.928c-.43-.143-.716-.5-.716-.928zm-5.51 0a1.1 1.1 0 0 1 1.074-1.072 1.1 1.1 0 0 1 1.073 1.072c0 .428-.214.785-.572.928v-.928c0-.286-.215-.429-.43-.429-.286 0-.429.214-.429.429v.928c-.429-.143-.715-.5-.715-.928zm2.791-3.572a1.1 1.1 0 0 1 1.073-1.071 1.1 1.1 0 0 1 1.074 1.071c0 .429-.215.786-.573.929v-.929c0-.286-.214-.428-.429-.428-.286 0-.43.214-.43.428v.929c-.5-.215-.715-.572-.715-.929z"/>
                <path d="M25.257 33.357L19.533 30v1.857l5.724 3.286 5.795-3.286V30z"/>
            </g>
        </g>
    </g>
</svg>
